<?xml version="1.0" encoding="utf-8"?>
<!-- Generator: Adobe Illustrator 22.0.1, SVG Export Plug-In . SVG Version: 6.00 Build 0)  -->
<svg version="1.1" id="Layer_1" xmlns="http://www.w3.org/2000/svg" xmlns:xlink="http://www.w3.org/1999/xlink" x="0px" y="0px"
	  width="115" height="40" viewBox="0 0 111 40" style="enable-background:new 0 0 111 40;" xml:space="preserve">
<style type="text/css">
	.st0{fill:#D2D2D2;}
	.st1{fill:#F25022;}
	.st2{fill:#7FBA00;}
	.st3{fill:#00A4EF;}
	.st4{fill:#FFB900;}
	.st5{fill:#FFFFFF;}
</style>
<title>logo_windowsStore</title>
<g>
	<g id="Layer_2_1_">
		<rect x="-0.2" y="0.3" width="110.2" height="39.4"/>
		<path class="st0" d="M0.1,0.6h109.6v38.8H0.1V0.6z M-0.5,40h110.8V0H-0.5V40z"/>
	</g>
	<g id="Layer_1_1_">
		<rect x="8.6" y="8.8" class="st1" width="10.7" height="10.7"/>
		<rect x="20.4" y="8.8" class="st2" width="10.7" height="10.7"/>
		<rect x="8.6" y="20.6" class="st3" width="10.7" height="10.7"/>
		<rect x="20.4" y="20.6" class="st4" width="10.7" height="10.7"/>
		<path class="st5" d="M51.9,20.9c0-0.3,0.1-0.6,0.3-0.8c0.2-0.2,0.5-0.3,0.8-0.3c0.3,0,0.6,0.1,0.8,0.3c0.2,0.2,0.3,0.5,0.3,0.8
			c0,0.3-0.1,0.6-0.3,0.8C53.6,21.9,53.4,22,53,22c-0.3,0-0.6-0.1-0.8-0.3C52,21.5,51.9,21.2,51.9,20.9 M54,31.4h-1.9v-8.1H54V31.4z
			"/>
		<path class="st5" d="M59.8,30c0.3,0,0.6-0.1,0.9-0.2c0.3-0.1,0.7-0.3,0.9-0.5v1.8c-0.3,0.2-0.7,0.3-1,0.4
			c-0.4,0.1-0.8,0.1-1.3,0.1c-1.2,0-2.2-0.4-2.9-1.1c-0.8-0.8-1.1-1.7-1.1-2.9c0-1.3,0.4-2.4,1.2-3.2c0.8-0.8,1.8-1.3,3.3-1.3
			c0.4,0,0.7,0.1,1.1,0.1s0.7,0.2,0.9,0.3v1.8c-0.3-0.2-0.6-0.4-0.9-0.5c-0.3-0.1-0.6-0.2-0.9-0.2c-0.8,0-1.4,0.2-1.8,0.7
			c-0.5,0.5-0.7,1.2-0.7,2c0,0.8,0.2,1.5,0.7,1.9C58.4,29.8,59,30,59.8,30"/>
		<path class="st5" d="M67.2,23.1c0.2,0,0.3,0,0.4,0c0.1,0,0.2,0.1,0.3,0.1v1.9c-0.1-0.1-0.2-0.1-0.4-0.2s-0.4-0.1-0.7-0.1
			c-0.5,0-0.9,0.2-1.2,0.6c-0.3,0.4-0.5,1-0.5,1.8v4.1h-1.9v-8.1h1.9v1.3h0c0.2-0.4,0.4-0.8,0.8-1C66.2,23.2,66.7,23.1,67.2,23.1"/>
		<path class="st5" d="M68,27.4c0-1.3,0.4-2.4,1.1-3.2c0.8-0.8,1.8-1.2,3.2-1.2c1.3,0,2.3,0.4,3,1.1c0.7,0.8,1.1,1.8,1.1,3.1
			c0,1.3-0.4,2.4-1.1,3.2c-0.8,0.8-1.8,1.2-3.1,1.2c-1.3,0-2.3-0.4-3-1.1C68.4,29.7,68,28.7,68,27.4 M70,27.4c0,0.8,0.2,1.5,0.6,1.9
			c0.4,0.4,0.9,0.7,1.7,0.7c0.7,0,1.2-0.2,1.6-0.7c0.4-0.4,0.6-1.1,0.6-2c0-0.9-0.2-1.5-0.6-2c-0.4-0.4-0.9-0.7-1.6-0.7
			c-0.7,0-1.2,0.2-1.6,0.7C70.2,25.8,70,26.5,70,27.4"/>
		<path class="st5" d="M79.2,25.4c0,0.3,0.1,0.5,0.3,0.6c0.2,0.2,0.6,0.3,1.2,0.6c0.8,0.3,1.3,0.7,1.6,1c0.3,0.4,0.5,0.8,0.5,1.4
			c0,0.8-0.3,1.4-0.9,1.8s-1.4,0.7-2.4,0.7c-0.3,0-0.7,0-1.1-0.1c-0.4-0.1-0.8-0.2-1-0.3v-1.9c0.3,0.2,0.7,0.4,1.1,0.6
			c0.4,0.1,0.8,0.2,1.1,0.2c0.4,0,0.8-0.1,1-0.2c0.2-0.1,0.3-0.3,0.3-0.6c0-0.3-0.1-0.5-0.3-0.7c-0.2-0.2-0.6-0.4-1.2-0.6
			c-0.7-0.3-1.2-0.6-1.5-1c-0.3-0.4-0.4-0.8-0.4-1.4c0-0.7,0.3-1.3,0.9-1.8c0.6-0.5,1.3-0.7,2.3-0.7c0.3,0,0.6,0,1,0.1
			c0.4,0.1,0.7,0.1,0.9,0.2v1.8c-0.3-0.2-0.6-0.3-0.9-0.4c-0.3-0.1-0.7-0.2-1-0.2c-0.4,0-0.7,0.1-0.8,0.2
			C79.3,24.9,79.2,25.1,79.2,25.4"/>
		<path class="st5" d="M83.5,27.4c0-1.3,0.4-2.4,1.1-3.2c0.8-0.8,1.8-1.2,3.2-1.2c1.3,0,2.3,0.4,3,1.1c0.7,0.8,1.1,1.8,1.1,3.1
			c0,1.3-0.4,2.4-1.1,3.2c-0.8,0.8-1.8,1.2-3.1,1.2c-1.3,0-2.3-0.4-3-1.1C83.9,29.7,83.5,28.7,83.5,27.4 M85.5,27.4
			c0,0.8,0.2,1.5,0.6,1.9c0.4,0.4,0.9,0.7,1.7,0.7c0.7,0,1.2-0.2,1.6-0.7c0.4-0.4,0.6-1.1,0.6-2c0-0.9-0.2-1.5-0.6-2
			c-0.4-0.4-0.9-0.7-1.6-0.7c-0.7,0-1.2,0.2-1.6,0.7C85.7,25.8,85.5,26.5,85.5,27.4"/>
		<path class="st5" d="M98.2,24.8V29c0,0.9,0.2,1.5,0.6,1.9s1,0.6,1.8,0.6c0.3,0,0.6,0,0.8-0.1c0.3-0.1,0.5-0.1,0.6-0.2v-1.6
			c-0.1,0.1-0.3,0.1-0.4,0.2s-0.3,0.1-0.4,0.1c-0.4,0-0.7-0.1-0.9-0.3c-0.2-0.2-0.3-0.6-0.3-1.1v-3.8h1.9v-1.6h-1.9v-2.4l-1.9,0.6
			v1.8h-2.9v-1c0-0.5,0.1-0.9,0.3-1.1s0.5-0.4,0.9-0.4c0.2,0,0.4,0,0.6,0.1c0.2,0.1,0.3,0.1,0.3,0.1v-1.7c-0.1-0.1-0.3-0.1-0.5-0.1
			s-0.4,0-0.6,0c-0.9,0-1.6,0.3-2.1,0.8c-0.6,0.6-0.8,1.2-0.8,2.1v1.1h-1.4v1.6h1.4v6.6h1.9v-6.6L98.2,24.8L98.2,24.8z"/>
		<polygon class="st5" points="50.2,20 50.2,31.4 48.3,31.4 48.3,22.5 48.2,22.5 44.7,31.4 43.4,31.4 39.8,22.5 39.8,22.5
			39.8,31.4 37.9,31.4 37.9,20 40.8,20 44,28.4 44.1,28.4 47.5,20 		"/>
		<path class="st5" d="M43.1,15.1c-0.7,0.4-1.4,0.6-2.3,0.6c-0.7,0-1.2-0.1-1.7-0.4c-0.5-0.3-0.9-0.7-1.2-1.2
			c-0.3-0.5-0.4-1.1-0.4-1.8c0-0.7,0.2-1.3,0.4-1.9c0.3-0.5,0.7-1,1.3-1.3s1.2-0.5,1.9-0.5c0.3,0,0.7,0,1,0.1
			C42.5,8.8,42.7,8.9,43,9v1c-0.5-0.3-1.2-0.5-2-0.5c-0.5,0-0.9,0.1-1.3,0.3c-0.4,0.2-0.7,0.6-0.9,0.9c-0.2,0.4-0.3,0.9-0.3,1.4
			c0,0.8,0.2,1.4,0.6,1.9c0.4,0.5,1,0.7,1.8,0.7c0.5,0,0.9-0.1,1.3-0.3v-1.8h-1.4V12h2.4V15.1z"/>
		<path class="st5" d="M48.6,13.4h-3.4c0,0.5,0.2,0.9,0.4,1.1c0.3,0.3,0.6,0.4,1.1,0.4c0.6,0,1.1-0.2,1.5-0.5v0.8
			c-0.2,0.1-0.4,0.2-0.7,0.3c-0.3,0.1-0.6,0.1-0.9,0.1c-0.7,0-1.3-0.2-1.7-0.7s-0.6-1.1-0.6-1.8c0-0.5,0.1-0.9,0.3-1.3
			c0.2-0.4,0.5-0.7,0.8-0.9c0.3-0.2,0.7-0.3,1.2-0.3c0.6,0,1.1,0.2,1.5,0.6c0.4,0.4,0.5,1,0.5,1.7L48.6,13.4L48.6,13.4z M47.7,12.7
			c0-0.4-0.1-0.7-0.3-1c-0.2-0.2-0.5-0.3-0.8-0.3c-0.3,0-0.6,0.1-0.8,0.3c-0.2,0.2-0.4,0.6-0.5,0.9H47.7z"/>
		<path class="st5" d="M52.3,15.5c-0.1,0.1-0.2,0.1-0.4,0.1c-0.2,0-0.3,0-0.4,0c-0.9,0-1.3-0.5-1.3-1.5v-2.7h-0.8v-0.8h0.8V9.6
			l0.9-0.3v1.4h1.2v0.8h-1.2V14c0,0.3,0.1,0.6,0.2,0.7c0.1,0.1,0.3,0.2,0.6,0.2c0.2,0,0.3-0.1,0.5-0.2L52.3,15.5L52.3,15.5z"/>
		<path class="st5" d="M56.9,9c0,0.2-0.1,0.3-0.2,0.4c-0.1,0.1-0.3,0.2-0.4,0.2S56,9.5,55.9,9.4c-0.1-0.1-0.2-0.2-0.2-0.4
			c0-0.2,0.1-0.3,0.2-0.4c0.1-0.1,0.3-0.2,0.4-0.2s0.3,0.1,0.4,0.2C56.9,8.7,56.9,8.8,56.9,9 M56.8,15.6h-0.9v-4.8h0.9V15.6z"/>
		<path class="st5" d="M60.9,15.5c-0.1,0.1-0.2,0.1-0.4,0.1c-0.2,0-0.3,0-0.4,0c-0.9,0-1.3-0.5-1.3-1.5v-2.7h-0.8v-0.8h0.8V9.6
			l0.9-0.3v1.4h1.2v0.8h-1.2V14c0,0.3,0.1,0.6,0.2,0.7c0.1,0.1,0.3,0.2,0.6,0.2c0.2,0,0.3-0.1,0.5-0.2L60.9,15.5L60.9,15.5z"/>
		<path class="st5" d="M67,9.2c-0.2-0.1-0.3-0.1-0.5-0.1c-0.5,0-0.8,0.3-0.8,1v0.7h1.1v0.8h-1.1v4.1h-0.9v-4.1h-0.8v-0.8h0.8V10
			c0-0.5,0.1-0.9,0.4-1.2c0.3-0.3,0.7-0.5,1.2-0.5c0.3,0,0.4,0,0.6,0.1L67,9.2L67,9.2z"/>
		<path class="st5" d="M70.4,11.7c-0.1,0-0.2-0.1-0.3-0.1c-0.1,0-0.2-0.1-0.3-0.1c-0.3,0-0.6,0.2-0.8,0.4c-0.2,0.3-0.3,0.7-0.3,1.2
			v2.5h-0.9v-4.8h0.9v1h0c0.1-0.3,0.3-0.6,0.5-0.8c0.2-0.2,0.5-0.3,0.8-0.3c0.2,0,0.3,0,0.4,0.1L70.4,11.7L70.4,11.7z"/>
		<path class="st5" d="M75.8,13.1c0,0.8-0.2,1.4-0.7,1.9c-0.4,0.5-1.1,0.7-1.8,0.7c-0.7,0-1.3-0.2-1.8-0.7c-0.4-0.4-0.7-1.1-0.7-1.8
			c0-0.8,0.2-1.4,0.7-1.9c0.4-0.5,1.1-0.7,1.8-0.7c0.7,0,1.3,0.2,1.7,0.7C75.6,11.7,75.8,12.3,75.8,13.1 M74.8,13.2
			c0-0.6-0.1-1-0.4-1.3c-0.3-0.3-0.6-0.4-1.1-0.4s-0.8,0.2-1.1,0.5c-0.3,0.3-0.4,0.8-0.4,1.3c0,0.6,0.1,1,0.4,1.3s0.6,0.5,1.1,0.5
			c0.5,0,0.8-0.2,1.1-0.4C74.7,14.2,74.8,13.7,74.8,13.2"/>
		<path class="st5" d="M84.2,15.6h-0.9v-2.8c0-0.5-0.1-0.9-0.2-1.1c-0.2-0.2-0.4-0.3-0.8-0.3c-0.3,0-0.6,0.1-0.8,0.4
			c-0.2,0.3-0.3,0.6-0.3,1v2.7h-0.9v-2.8c0-0.9-0.3-1.3-1-1.3c-0.3,0-0.6,0.1-0.8,0.4c-0.2,0.3-0.3,0.6-0.3,1v2.7h-0.9v-4.9H78v0.8
			h0c0.3-0.6,0.9-0.9,1.5-0.9c0.3,0,0.6,0.1,0.8,0.3c0.2,0.2,0.4,0.4,0.5,0.7c0.2-0.3,0.4-0.6,0.7-0.7c0.3-0.2,0.6-0.2,0.9-0.2
			c1.1,0,1.6,0.7,1.6,2L84.2,15.6L84.2,15.6z"/>
	</g>
</g>
</svg>
